<?xml version="1.0" encoding="UTF-8"?>
<svg id="_レイヤー_1" data-name="レイヤー 1" xmlns="http://www.w3.org/2000/svg" xmlns:xlink="http://www.w3.org/1999/xlink" viewBox="0 0 289 263">
  <defs>
    <style>
      .cls-1 {
        stroke-width: 0px;
      }

      .cls-1, .cls-2 {
        fill: none;
      }

      .cls-3 {
        clip-path: url(#clippath);
      }

      .cls-2 {
        stroke: #61587d;
      }
    </style>
    <clipPath id="clippath">
      <rect class="cls-1" y="0" width="285" height="285"/>
    </clipPath>
  </defs>
  <g class="cls-3">
    <g>
      <g>
        <path class="cls-2" d="M18.55,237.12c-7.9,1.58-15.92,2.82-24.01,3.57"/>
        <path class="cls-2" d="M19.28,240.75c-8.03,1.61-16.17,2.86-24.38,3.62"/>
        <path class="cls-2" d="M-4.36,251.75c8.43-.78,16.82-2.08,25.11-3.73"/>
        <path class="cls-2" d="M20.02,244.39c-8.17,1.63-16.42,2.91-24.74,3.68"/>
        <path class="cls-2" d="M-4,255.44c8.55-.8,17.05-2.1,25.48-3.79"/>
      </g>
      <g>
        <path class="cls-2" d="M41.8,231.02c-3.76,1.3-7.64,2.32-11.49,3.41l-5.85,1.42c-1.94.5-3.94.83-5.91,1.26"/>
        <path class="cls-2" d="M42.96,234.54c-3.84,1.33-7.79,2.37-11.71,3.48l-5.96,1.45c-1.98.51-4.01.85-6.01,1.28"/>
        <path class="cls-2" d="M20.75,248.02c2.07-.45,4.16-.8,6.21-1.33l6.17-1.5c4.07-1.15,8.16-2.23,12.15-3.61"/>
        <path class="cls-2" d="M44.12,238.07c-3.92,1.35-7.94,2.42-11.93,3.54l-6.06,1.47c-2.01.52-4.07.86-6.11,1.3"/>
        <path class="cls-2" d="M21.48,251.65c2.1-.45,4.22-.81,6.31-1.35l6.27-1.52c4.14-1.16,8.3-2.27,12.38-3.67"/>
      </g>
      <g>
        <path class="cls-2" d="M63.75,222.08c-6.98,3.55-14.38,6.44-21.94,8.94"/>
        <path class="cls-2" d="M65.4,225.4c-7.16,3.64-14.73,6.6-22.44,9.15"/>
        <path class="cls-2" d="M45.28,241.58c8.02-2.65,15.91-5.73,23.43-9.55"/>
        <path class="cls-2" d="M67.06,228.72c-7.34,3.73-15.07,6.75-22.94,9.35"/>
        <path class="cls-2" d="M46.43,245.11c8.17-2.7,16.23-5.85,23.93-9.76"/>
      </g>
      <g>
        <path class="cls-2" d="M83.62,209.98c-6.19,4.56-12.86,8.59-19.87,12.1"/>
        <path class="cls-2" d="M85.83,212.95c-6.39,4.71-13.25,8.84-20.43,12.45"/>
        <path class="cls-2" d="M68.71,232.03c7.54-3.78,14.78-8.14,21.55-13.14"/>
        <path class="cls-2" d="M88.05,215.92c-6.58,4.85-13.63,9.1-20.99,12.8"/>
        <path class="cls-2" d="M70.37,235.35c7.71-3.87,15.15-8.34,22.12-13.49"/>
      </g>
      <g>
        <path class="cls-2" d="M100.42,194.46c-.65.72-1.28,1.47-1.93,2.17l-2,2.03c-1.33,1.35-2.61,2.75-4.08,3.98l-2.13,1.91c-.72.63-1.39,1.3-2.17,1.87l-4.51,3.57"/>
        <path class="cls-2" d="M103.2,196.9c-5.29,5.92-11,11.28-17.37,16.05"/>
        <path class="cls-2" d="M90.27,218.89c6.75-5.04,12.9-10.81,18.5-17.09"/>
        <path class="cls-2" d="M105.99,199.35c-5.45,6.1-11.37,11.67-17.94,16.57"/>
        <path class="cls-2" d="M92.48,221.86c6.94-5.18,13.31-11.15,19.07-17.61"/>
      </g>
      <g>
        <path class="cls-2" d="M114.2,175.67c-1.99,3.35-4.21,6.55-6.46,9.72-2.34,3.1-4.72,6.18-7.31,9.07"/>
        <path class="cls-2" d="M117.37,177.59c-2.04,3.44-4.32,6.73-6.64,9.98-2.4,3.19-4.86,6.35-7.52,9.32"/>
        <path class="cls-2" d="M108.77,201.8c2.81-3.14,5.4-6.47,7.93-9.84,2.45-3.43,4.85-6.9,7-10.52"/>
        <path class="cls-2" d="M120.54,179.52c-2.1,3.53-4.44,6.91-6.82,10.25-2.47,3.28-4.99,6.52-7.73,9.58"/>
        <path class="cls-2" d="M111.55,204.24c2.88-3.22,5.54-6.64,8.14-10.09,2.51-3.52,4.97-7.08,7.18-10.79"/>
      </g>
      <g>
        <path class="cls-2" d="M124.48,154.79l-1.06,2.7-1.15,2.67c-.73,1.79-1.64,3.52-2.44,5.29-1.76,3.46-3.57,6.91-5.63,10.22"/>
        <path class="cls-2" d="M127.94,156.13l-1.09,2.78-1.19,2.75c-.76,1.85-1.68,3.62-2.51,5.44-1.81,3.56-3.67,7.1-5.78,10.5"/>
        <path class="cls-2" d="M123.7,181.44c2.22-3.58,4.19-7.31,6.09-11.07.88-1.91,1.85-3.79,2.65-5.74l1.25-2.9,1.15-2.94"/>
        <path class="cls-2" d="M131.4,157.46l-1.12,2.86-1.22,2.82c-.78,1.9-1.73,3.72-2.58,5.59-1.86,3.66-3.77,7.3-5.94,10.79"/>
        <path class="cls-2" d="M126.87,183.36c2.28-3.68,4.3-7.5,6.25-11.36.9-1.96,1.9-3.89,2.72-5.89l1.29-2.98,1.18-3.02"/>
      </g>
      <g>
        <path class="cls-2" d="M130.57,132.72c-.62,3.71-1.4,7.43-2.46,11.11-.47,1.85-1.11,3.67-1.66,5.51-.66,1.81-1.23,3.65-1.97,5.44"/>
        <path class="cls-2" d="M134.22,133.31c-.64,3.85-1.45,7.71-2.54,11.51-.49,1.91-1.14,3.79-1.71,5.69-.68,1.87-1.27,3.77-2.03,5.61"/>
        <path class="cls-2" d="M134.86,158.79c.8-1.95,1.43-3.96,2.15-5.94.61-2.01,1.3-4,1.82-6.04,1.16-4.05,2.03-8.16,2.72-12.3"/>
        <path class="cls-2" d="M137.88,133.91c-.67,4-1.51,7.98-2.63,11.91-.5,1.98-1.18,3.91-1.77,5.87-.7,1.92-1.31,3.88-2.09,5.77"/>
        <path class="cls-2" d="M138.31,160.12c.82-2,1.47-4.07,2.2-6.1.63-2.07,1.34-4.12,1.87-6.22,1.19-4.17,2.09-8.42,2.8-12.7"/>
      </g>
      <g>
        <path class="cls-2" d="M131.09,111.13c.51,3.35.67,6.92.55,10.55-.12,3.63-.44,7.33-1.08,11.04"/>
        <path class="cls-2" d="M134.76,110.6c.55,3.6.72,7.38.59,11.19-.13,3.81-.46,7.67-1.12,11.53"/>
        <path class="cls-2" d="M141.54,134.5c.71-4.14,1.08-8.32,1.22-12.5.14-4.18-.04-8.37-.66-12.47"/>
        <path class="cls-2" d="M138.43,110.06c.59,3.86.76,7.84.63,11.83-.13,4-.48,8.02-1.17,12.01"/>
        <path class="cls-2" d="M145.2,135.09c.73-4.28,1.12-8.63,1.26-12.99.14-4.36-.04-8.76-.7-13.12"/>
      </g>
      <g>
        <path class="cls-2" d="M124.34,95.02c1.69,1.77,3.15,4.08,4.29,6.84,1.15,2.75,1.96,5.92,2.46,9.27"/>
        <path class="cls-2" d="M127.02,92.46c4.13,4.29,6.7,10.92,7.74,18.13"/>
        <path class="cls-2" d="M142.09,109.52c-.61-4.11-1.62-8.15-3.2-11.94-1.57-3.78-3.72-7.31-6.51-10.24"/>
        <path class="cls-2" d="M129.7,89.9c4.87,5.09,7.6,12.47,8.72,20.15"/>
        <path class="cls-2" d="M145.76,108.98c-.65-4.36-1.72-8.69-3.44-12.82-1.71-4.13-4.1-8.06-7.25-11.37"/>
      </g>
      <g>
        <path class="cls-2" d="M110.23,89.93c3.04.04,6,.49,8.4,1.37,1.2.43,2.26.95,3.14,1.52.24.13.43.29.63.43.1.08.2.13.31.22l.33.3c.44.4.92.74,1.31,1.24"/>
        <path class="cls-2" d="M110.27,86.23c3.4.05,6.74.54,9.61,1.59,1.44.52,2.75,1.15,3.9,1.89.3.17.56.38.83.57.27.17.54.41.81.67.54.49,1.13.93,1.61,1.52"/>
        <path class="cls-2" d="M132.38,87.35c-.66-.77-1.45-1.4-2.2-2.07-.37-.34-.75-.67-1.17-.95-.4-.3-.8-.59-1.23-.85-1.68-1.08-3.51-1.95-5.41-2.64-3.82-1.38-7.93-1.96-12.04-2.02"/>
        <path class="cls-2" d="M110.3,82.52c3.75.05,7.48.59,10.83,1.8,1.67.6,3.24,1.36,4.65,2.27.37.21.7.46,1.03.71.34.23.66.51.99.81.65.58,1.34,1.11,1.9,1.79"/>
        <path class="cls-2" d="M135.06,84.79c-.74-.87-1.64-1.59-2.5-2.35-.43-.38-.86-.75-1.34-1.09-.47-.35-.93-.69-1.43-.99-1.95-1.25-4.03-2.24-6.17-3.01-4.29-1.54-8.79-2.17-13.25-2.24"/>
      </g>
      <g>
        <path class="cls-2" d="M92.75,94.63c2.38-1.52,5.25-2.7,8.25-3.52,3.01-.79,6.18-1.22,9.24-1.18"/>
        <path class="cls-2" d="M90.78,91.49c5.51-3.47,12.67-5.33,19.49-5.27"/>
        <path class="cls-2" d="M110.34,78.82c-8.21-.05-16.55,2.07-23.5,6.4"/>
        <path class="cls-2" d="M88.81,88.35c6.23-3.9,13.98-5.89,21.49-5.83"/>
        <path class="cls-2" d="M110.37,75.11c-8.91-.04-17.84,2.21-25.5,6.97"/>
      </g>
      <g>
        <path class="cls-2" d="M84.19,106.87c.6-2.75,1.58-5.16,2.94-7.07,1.28-1.91,3.23-3.65,5.62-5.17"/>
        <path class="cls-2" d="M80.56,106.1c.69-3.16,1.85-6.05,3.52-8.42,1.61-2.38,3.94-4.45,6.69-6.19"/>
        <path class="cls-2" d="M86.84,85.22c-3.45,2.18-6.56,4.9-8.83,8.23-2.32,3.3-3.83,7.14-4.7,11.13"/>
        <path class="cls-2" d="M76.94,105.34c.78-3.57,2.11-6.94,4.11-9.77,1.94-2.85,4.67-5.25,7.76-7.21"/>
        <path class="cls-2" d="M84.87,82.08c-3.8,2.4-7.3,5.45-9.9,9.25-2.64,3.76-4.33,8.08-5.28,12.48"/>
      </g>
      <g>
        <path class="cls-2" d="M85.73,125.43c-2.09-6.22-2.71-13.03-1.54-18.57"/>
        <path class="cls-2" d="M82.21,126.61c-2.26-6.76-2.99-14.14-1.65-20.5"/>
        <path class="cls-2" d="M73.31,104.57c-1.66,8.02-.73,16.55,1.87,24.38"/>
        <path class="cls-2" d="M78.7,127.78c-2.43-7.3-3.26-15.25-1.76-22.44"/>
        <path class="cls-2" d="M69.69,103.81c-1.82,8.85-.79,17.95,1.98,26.32"/>
      </g>
      <g>
        <path class="cls-2" d="M95.41,140.61c-1.93-1.56-3.91-3.78-5.56-6.43-1.68-2.63-3.07-5.63-4.12-8.74"/>
        <path class="cls-2" d="M93.11,143.51c-2.34-1.88-4.56-4.42-6.39-7.35-1.86-2.91-3.37-6.17-4.51-9.56"/>
        <path class="cls-2" d="M75.18,128.96c1.32,3.92,3.07,7.71,5.28,11.19,2.19,3.49,4.89,6.64,8.04,9.18"/>
        <path class="cls-2" d="M90.8,146.42c-2.74-2.21-5.2-5.06-7.22-8.26-2.04-3.19-3.67-6.72-4.89-10.37"/>
        <path class="cls-2" d="M71.67,130.13c1.41,4.19,3.27,8.24,5.67,12,2.37,3.76,5.31,7.23,8.87,10.1"/>
      </g>
      <g>
        <path class="cls-2" d="M111.77,145.48c-3.34-.07-6.5-.52-9.27-1.34-2.78-.83-5.14-2.02-7.09-3.53"/>
        <path class="cls-2" d="M111.68,149.19c-7.24-.13-13.89-1.98-18.57-5.67"/>
        <path class="cls-2" d="M88.51,149.32c3.19,2.49,6.89,4.3,10.81,5.47,3.92,1.17,8.05,1.71,12.19,1.81"/>
        <path class="cls-2" d="M111.59,152.89c-7.74-.14-15.25-2.11-20.79-6.47"/>
        <path class="cls-2" d="M86.2,152.23c3.6,2.82,7.75,4.84,12.05,6.11,4.31,1.28,8.76,1.86,13.17,1.96"/>
      </g>
      <g>
        <path class="cls-2" d="M133.06,142.21c-7.25,2.19-14.58,3.4-21.29,3.28"/>
        <path class="cls-2" d="M134.11,145.76c-7.51,2.26-15.18,3.56-22.42,3.43"/>
        <path class="cls-2" d="M111.51,156.6c4.15.09,8.32-.26,12.45-.91,4.13-.64,8.22-1.62,12.25-2.82"/>
        <path class="cls-2" d="M135.16,149.32c-3.89,1.16-7.83,2.1-11.78,2.71-3.94.62-7.9.95-11.78.87"/>
        <path class="cls-2" d="M111.43,160.3c4.41.1,8.8-.28,13.11-.96,4.32-.67,8.56-1.68,12.72-2.92"/>
      </g>
      <g>
        <path class="cls-2" d="M154.61,133.5c-3.53,1.76-7.09,3.44-10.69,4.88-1.79.77-3.61,1.4-5.41,2.08-1.81.6-3.62,1.25-5.44,1.75"/>
        <path class="cls-2" d="M156.28,136.81c-3.61,1.8-7.26,3.52-10.96,5-1.84.79-3.71,1.44-5.57,2.14-1.87.62-3.74,1.29-5.63,1.81"/>
        <path class="cls-2" d="M136.21,152.87c2.02-.56,4.01-1.27,6-1.93,1.97-.74,3.96-1.44,5.9-2.26,3.91-1.57,7.73-3.36,11.51-5.25"/>
        <path class="cls-2" d="M157.95,140.12c-3.69,1.84-7.43,3.6-11.24,5.12-1.89.81-3.82,1.48-5.74,2.2-1.94.64-3.86,1.33-5.82,1.87"/>
        <path class="cls-2" d="M137.26,156.42c2.09-.58,4.13-1.31,6.19-1.99,2.03-.76,4.07-1.48,6.06-2.32,4.01-1.61,7.92-3.45,11.78-5.37"/>
      </g>
      <g>
        <path class="cls-2" d="M175.2,121.32c-6.66,4.52-13.55,8.6-20.59,12.18"/>
        <path class="cls-2" d="M177.28,124.39c-6.77,4.59-13.79,8.75-21,12.42"/>
        <path class="cls-2" d="M159.62,143.42c7.53-3.83,14.81-8.15,21.81-12.9"/>
        <path class="cls-2" d="M179.35,127.46c-6.89,4.67-14.04,8.91-21.41,12.66"/>
        <path class="cls-2" d="M161.28,146.73c7.69-3.91,15.1-8.31,22.22-13.14"/>
      </g>
      <g>
        <path class="cls-2" d="M194.54,106.68c-6.23,5.21-12.68,10.12-19.34,14.64"/>
        <path class="cls-2" d="M196.92,109.52c-6.32,5.29-12.87,10.27-19.64,14.87"/>
        <path class="cls-2" d="M181.43,130.53c7-4.75,13.75-9.89,20.24-15.32"/>
        <path class="cls-2" d="M199.3,112.37c-6.41,5.36-13.05,10.42-19.94,15.09"/>
        <path class="cls-2" d="M183.51,133.6c7.11-4.83,13.96-10.04,20.54-15.55"/>
      </g>
      <g>
        <path class="cls-2" d="M211.92,90.11c-.69.74-1.35,1.51-2.05,2.23l-2.14,2.11-4.27,4.23-2.13,2.12c-.71.71-1.48,1.32-2.22,1.98l-2.23,1.95-2.33,1.95"/>
        <path class="cls-2" d="M214.62,92.65c-.7.75-1.37,1.53-2.09,2.26l-2.18,2.15-4.35,4.31-2.17,2.16c-.72.72-1.51,1.34-2.27,2.02l-2.28,2-2.36,1.98"/>
        <path class="cls-2" d="M201.67,115.21c1.64-1.35,3.23-2.73,4.82-4.13.78-.71,1.61-1.36,2.36-2.11l2.25-2.23,4.51-4.46,2.25-2.23c.74-.75,1.43-1.56,2.15-2.33"/>
        <path class="cls-2" d="M217.32,95.18c-.71.76-1.39,1.56-2.12,2.3l-2.22,2.19-4.43,4.38-2.21,2.19c-.74.73-1.55,1.37-2.31,2.07-1.55,1.36-3.11,2.72-4.73,4.05"/>
        <path class="cls-2" d="M204.05,118.05c1.66-1.36,3.28-2.77,4.9-4.2.8-.72,1.65-1.39,2.41-2.15l2.29-2.27,4.59-4.54,2.29-2.27c.76-.76,1.46-1.58,2.19-2.37"/>
      </g>
      <g>
        <path class="cls-2" d="M227.52,71.64l-1.78,2.43-1.92,2.33-3.83,4.67c-.65.77-1.25,1.58-1.94,2.32l-2.05,2.24-4.09,4.48"/>
        <path class="cls-2" d="M230.48,73.87l-1.81,2.47-1.95,2.37-3.9,4.75c-.66.78-1.27,1.6-1.97,2.36l-2.08,2.27-4.15,4.55"/>
        <path class="cls-2" d="M220.02,97.72l4.28-4.69,2.14-2.35c.72-.78,1.35-1.62,2.04-2.43l4.03-4.91,2.01-2.45,1.88-2.55"/>
        <path class="cls-2" d="M233.44,76.1l-1.85,2.51-1.98,2.41-3.96,4.83c-.67.8-1.3,1.63-2,2.4l-2.11,2.31-4.21,4.62"/>
        <path class="cls-2" d="M222.73,100.25l4.34-4.76,2.17-2.38c.73-.79,1.38-1.65,2.07-2.47l4.09-4.98,2.04-2.49,1.91-2.6"/>
      </g>
      <g>
        <path class="cls-2" d="M240.78,51.66l-3.02,5.16-3.3,5.01c-2.11,3.39-4.58,6.57-6.94,9.81"/>
        <path class="cls-2" d="M243.99,53.51l-3.08,5.26-3.36,5.11c-2.16,3.46-4.66,6.69-7.07,9.99"/>
        <path class="cls-2" d="M236.4,78.33c2.5-3.41,5.08-6.77,7.33-10.35l3.48-5.3,3.2-5.47"/>
        <path class="cls-2" d="M247.2,55.36l-3.14,5.37-3.42,5.2c-2.2,3.52-4.74,6.82-7.2,10.17"/>
        <path class="cls-2" d="M239.36,80.56c2.54-3.47,5.17-6.88,7.45-10.53l3.54-5.4,3.27-5.57"/>
      </g>
      <g>
        <path class="cls-2" d="M251.32,30.26l-1.12,2.77-1.25,2.71c-.84,1.8-1.64,3.63-2.51,5.41l-2.76,5.3c-.47.88-.89,1.78-1.4,2.64l-1.51,2.58"/>
        <path class="cls-2" d="M254.75,31.67l-1.14,2.82-1.27,2.77c-.86,1.84-1.67,3.7-2.56,5.52l-2.81,5.41c-.48.9-.91,1.81-1.43,2.69l-1.54,2.63"/>
        <path class="cls-2" d="M250.41,57.21l1.6-2.73c.53-.91.99-1.87,1.48-2.8l2.92-5.62c.93-1.9,1.78-3.83,2.67-5.75l1.32-2.88,1.19-2.94"/>
        <path class="cls-2" d="M258.18,33.08l-1.17,2.88-1.3,2.82c-.88,1.88-1.71,3.78-2.62,5.63l-2.87,5.51c-.49.91-.93,1.85-1.45,2.75l-1.57,2.68"/>
        <path class="cls-2" d="M253.62,59.06l1.63-2.79c.54-.93,1.01-1.9,1.51-2.85l2.98-5.73c.95-1.93,1.81-3.91,2.72-5.86l1.35-2.94,1.21-2.99"/>
      </g>
      <g>
        <path class="cls-2" d="M259,7.57c-2.12,7.77-4.59,15.35-7.68,22.69"/>
        <path class="cls-2" d="M262.58,8.54c-2.15,7.9-4.68,15.64-7.83,23.13"/>
        <path class="cls-2" d="M261.6,34.49c3.28-7.79,5.91-15.84,8.13-24"/>
        <path class="cls-2" d="M266.15,9.51c-2.19,8.03-4.76,15.93-7.98,23.56"/>
        <path class="cls-2" d="M265.03,35.9c3.34-7.94,6.02-16.15,8.28-24.44"/>
      </g>
      <g>
        <path class="cls-2" d="M264.65-16.77l-2.72,12.48c-.45,2.01-.9,4.03-1.4,5.98-.49,1.97-.96,3.95-1.52,5.88"/>
        <path class="cls-2" d="M268.26-15.96c-1.87,8.55-3.51,16.58-5.68,24.5"/>
        <path class="cls-2" d="M269.73,10.48c2.24-8.17,3.94-16.46,5.76-24.82"/>
        <path class="cls-2" d="M271.88-15.15c-1.85,8.45-3.51,16.62-5.72,24.66"/>
        <path class="cls-2" d="M273.31,11.46c2.28-8.29,3.99-16.72,5.8-24.98"/>
      </g>
    </g>
  </g>
</svg>