<?xml version="1.0" encoding="UTF-8"?>
<svg id="_レイヤー_1" data-name="レイヤー 1" xmlns="http://www.w3.org/2000/svg" viewBox="0 0 251 270">
  <defs>
    <style>
      .cls-1 {
        fill: #546862;
      }

      .cls-1, .cls-2 {
        stroke-width: 0px;
      }

      .cls-2 {
        fill: #fff;
      }
    </style>
  </defs>
  <path class="cls-1" d="M141.14,64.4h0c3.32,9.35,14,13.77,22.96,9.51h0c14.23-6.76,29.07,8.08,22.31,22.31h0c-4.26,8.96.16,19.64,9.51,22.96h0c14.84,5.28,14.84,26.27,0,31.55h0c-9.35,3.32-13.77,14-9.51,22.96h0c6.76,14.23-8.08,29.07-22.31,22.31h0c-8.96-4.26-19.64.16-22.96,9.51h0c-5.28,14.84-26.27,14.84-31.55,0h0c-3.32-9.35-14-13.77-22.96-9.51h0c-14.23,6.76-29.07-8.08-22.31-22.31h0c4.26-8.96-.16-19.64-9.51-22.96h0c-14.84-5.28-14.84-26.27,0-31.55h0c9.35-3.32,13.77-14,9.51-22.96h0c-6.76-14.23,8.08-29.07,22.31-22.31h0c8.96,4.26,19.64-.16,22.96-9.51h0c5.28-14.84,26.27-14.84,31.55,0Z"/>
  <path class="cls-2" d="M97.79,133.48c-3.5-1.49-4.9-1.84-8.13-2.19-2.01-.26-2.97-1.66-2.97-3.23,0-2.01,1.66-4.2,4.54-4.2,2.97.09,6.73.7,9.97,2.1,2.01.87,2.88,2.36,2.88,3.85,0,2.1-1.66,4.11-4.11,4.11-.7,0-1.4-.09-2.19-.44ZM93.59,167.83c-2.36,0-4.28-1.92-4.28-4.2,0-1.05.44-2.1,1.49-3.06,3.32-3.15,6.91-7.78,10.32-13.2.87-1.4,2.1-2.01,3.32-2.01,2.1,0,4.11,1.66,4.11,4.02,0,.79-.17,1.57-.61,2.45-2.97,5.51-8.22,11.8-10.67,14.25-1.22,1.22-2.54,1.75-3.67,1.75ZM101.28,113.9c-2.1-2.19-4.81-3.5-7.34-4.37-1.57-.52-2.27-1.75-2.27-2.97,0-1.92,1.66-3.93,4.2-3.93.35,0,.79,0,1.14.09,3.41.7,8.13,3.15,9.97,5.16.96,1.05,1.31,2.19,1.31,3.15,0,2.36-1.92,4.28-4.02,4.28-1.05,0-2.01-.44-2.97-1.4ZM118.42,136.98c-2.45.61-5.07,1.22-7.96,1.66-.35.09-.7.09-.96.09-2.62,0-4.2-1.92-4.2-3.85,0-1.75,1.31-3.5,4.2-3.76,7.96-.79,13.99-2.54,18.53-4.81-1.31-1.14-2.54-2.36-3.67-3.67-1.4,1.75-3.15,3.32-4.28,3.93-.79.44-1.66.61-2.36.61-2.36,0-4.02-1.92-4.02-3.85,0-1.22.79-2.54,2.54-3.15,2.62-.96,4.46-2.01,4.46-2.88,0-1.22.52-2.1,1.31-2.62-2.71,0-5.51.09-8.57.09h-.09c-2.54,0-3.85-1.75-3.85-3.41,0-1.75,1.22-3.41,3.85-3.41h.09c5.94.09,11.1.17,16.08.17,0-1.4-.09-3.76-.09-6.91v-.09c0-2.36,2.01-3.58,3.93-3.58,2.01,0,4.11,1.22,4.02,3.67-.09,3.06-.09,5.51-.17,6.91,5.51,0,11.1-.09,17.75-.17h.09c2.54,0,3.76,1.66,3.76,3.32,0,1.75-1.22,3.5-3.76,3.5h-.09c-2.62,0-5.07-.09-7.43-.09-1.4,3.5-3.67,7.52-7.61,11.36,5.86,2.01,12.76,2.8,19.84,3.23,2.88.17,4.28,2.1,4.28,3.93,0,2.01-1.57,4.02-4.9,4.02-.44,0-.87,0-1.4-.09-3.23-.52-6.64-1.05-9.88-1.84.52.52.87,1.31.87,2.19-.09,3.67-.09,8.3-.09,13.11,0,5.94,0,11.98.17,16.87v.17c0,2.45-1.92,3.67-3.85,3.67-1.92,0-3.85-1.22-3.85-3.67v-.17c.09-3.41.17-7.52.17-11.71-3.41-.09-6.12-.09-8.74-.09s-5.33,0-8.65.09c-2.19,6.82-6.64,13.2-15.74,16.26-.79.26-1.57.35-2.27.35-2.71,0-4.37-1.92-4.37-3.85,0-1.4.87-2.88,2.97-3.41,12.06-3.15,14.07-13.72,14.07-22.82,0-1.57-.09-3.06-.17-4.46v-.87ZM141.14,137.33c0-1.66,1.22-2.71,2.62-3.06-3.32-.96-6.56-2.1-9.62-3.76-2.71,1.75-5.94,3.32-9.79,4.72.87.52,1.57,1.49,1.57,2.71v.87h15.21v-1.49ZM141.32,144.58c-3.58-.09-6.38-.17-9.18-.17-2.01,0-4.02.09-6.38.09-.09,1.75-.26,3.58-.52,5.42,2.97.09,5.33.09,7.78.09,2.45,0,4.98,0,8.3-.09v-5.33ZM127.42,114.6c.79.52,1.31,1.4,1.31,2.36,0,.79-.17,1.05-.17,1.4,1.49,1.92,3.06,3.23,4.81,4.46,3.15-2.54,5.07-5.42,6.12-8.22h-12.06Z"/>
</svg>